<svg width="20" height="20" viewBox="0 0 20 20" fill="none" xmlns="http://www.w3.org/2000/svg">
                <path d="M10.25 13.0154C8.45507 13.0154 7 11.5604 7 9.76547C7 7.97058 8.45507 6.51551 10.25 6.51551C12.0449 6.51551 13.5 7.97058 13.5 9.76547C13.5 11.5604 12.0449 13.0154 10.25 13.0154Z" fill="currentColor"/>
                <path d="M10.2 3.125C5.88545 3.125 2.65583 5.85855 1.60101 9.55413C1.5665 9.69565 1.5522 9.84351 1.5522 9.99689C1.5522 10.1497 1.56639 10.2971 1.6006 10.4381C2.65542 14.1336 5.88504 16.875 10.2 16.875C14.5149 16.875 17.7437 14.1334 18.7994 10.4369C18.8335 10.2954 18.8479 10.1475 18.8479 9.99424C18.8479 9.84346 18.8337 9.69599 18.7995 9.55532C17.7446 5.85929 14.5149 3.125 10.2 3.125ZM10.2 14.875C7.38624 14.875 4.93773 12.8773 4.03242 10.0031C4.93773 7.12887 7.38624 5.12659 10.2 5.12659C13.0137 5.12659 15.4622 7.12887 16.3676 10.0031C15.4622 12.8773 13.0137 14.875 10.2 14.875Z" fill="currentColor"/>
              </svg>