<!-- <svg xmlns="http://www.w3.org/2000/svg" fill="none" viewBox="0 0 24 24" stroke-width="1.5" stroke="currentColor" class="size-6">
  <path stroke-linecap="round" stroke-linejoin="round" d="M15.75 5.25a3 3 0 0 1 3 3m3 0a6 6 0 0 1-7.029 5.912c-.563-.097-1.159.026-1.563.43L10.5 17.25H8.25v2.25H6v2.25H2.25v-2.818c0-.597.237-1.17.659-1.591l6.499-6.499c.404-.404.527-1 .43-1.563A6 6 0 1 1 21.75 8.25Z" />
</svg> -->

<svg
                             
                                width="20"
                                height="20"
                                viewBox="0 0 23 23"
                                fill="none"
                                xmlns="http://www.w3.org/2000/svg"
                              >
                                <path
                                  d="M10.6252 13.9582C10.6252 13.613 10.3453 13.3332 10.0002 13.3332C9.65498 13.3332 9.37516 13.613 9.37516 13.9582V15.2082C9.37516 15.5533 9.65498 15.8332 10.0002 15.8332C10.3453 15.8332 10.6252 15.5533 10.6252 15.2082V13.9582Z"
                                  fill="#667085"
                                />
                                <path
                                  fill-rule="evenodd"
                                  clip-rule="evenodd"
                                  d="M15.75 5.25a3 3 0 0 1 3 3m3 0a6 6 0 0 1-7.029 5.912c-.563-.097-1.159.026-1.563.43L10.5 17.25H8.25v2.25H6v2.25H2.25v-2.818c0-.597.237-1.17.659-1.591l6.499-6.499c.404-.404.527-1 .43-1.563A6 6 0 1 1 21.75 8.25Z"
                                  stroke="currentColor"
                                />
                              </svg>