<svg width="721" height="227" viewBox="0 0 721 227" fill="none" xmlns="http://www.w3.org/2000/svg">
  <g clip-path="url(#clip0_4603_7730)">
  <path d="M537.701 5.59988C538.701 1.99988 541.801 -0.200122 545.601 -0.000122015C547.501 2.49988 550.601 5.19988 549.001 8.59988C542.701 28.6999 536.001 48.6999 529.701 68.8999C528.901 71.2999 528.101 74.0999 525.701 75.3999C523.101 76.0999 519.601 75.8999 518.101 73.1999C516.501 70.8999 517.701 67.9999 518.301 65.5999C524.801 45.5999 531.201 25.5999 537.701 5.59988ZM482.601 4.79988C484.901 4.29988 487.501 2.79988 489.701 4.39988C492.801 5.69988 493.301 9.49988 492.501 12.3999C489.101 29.9999 486.101 47.5999 482.601 65.1999C482.001 69.4999 475.801 71.0999 472.901 67.9999C470.401 65.7999 471.301 62.1999 471.801 59.3999C474.201 46.9999 476.501 34.5999 478.801 22.0999C479.801 16.2999 480.501 10.2999 482.601 4.79988ZM597.501 6.99988C600.401 6.09988 604.401 5.99988 605.901 9.09988C607.601 11.5999 606.101 14.2999 605.101 16.6999C594.601 39.1999 584.401 61.6999 573.901 84.1999C572.401 88.9999 564.401 89.2999 562.801 84.4999C562.001 82.1999 563.001 79.8999 563.901 77.7999C574.201 55.5999 584.401 33.3999 594.601 11.1999C595.501 9.69988 596.201 8.09988 597.501 6.99988ZM429.201 13.9999C431.401 13.5999 434.001 13.3999 436.001 14.6999C438.601 17.6999 437.601 21.8999 437.601 25.4999C436.601 38.3999 436.501 51.2999 435.501 64.1999C435.201 69.8999 425.801 70.2999 424.301 65.0999C423.501 61.5999 424.401 57.8999 424.401 54.3999C424.901 43.1999 425.501 31.9999 426.001 20.7999C426.101 18.2999 426.501 14.7999 429.201 13.9999ZM657.201 19.6999C659.301 19.5999 662.001 19.5999 663.101 21.8999C665.201 24.8999 663.101 28.4999 661.501 31.1999C647.101 54.8999 632.901 78.6999 618.601 102.4C617.001 105.2 613.501 107.9 610.301 105.9C606.701 104.5 606.101 99.6999 608.201 96.7999C622.801 72.4999 637.501 48.2999 652.001 23.9999C653.201 22.0999 654.601 19.4999 657.201 19.6999ZM374.201 36.2999C373.301 31.8999 378.301 27.9999 382.301 30.0999C385.401 31.0999 385.901 34.6999 386.101 37.4999C386.901 47.1999 388.201 56.7999 388.901 66.4999C389.301 68.7999 388.301 70.9999 387.201 72.9999C385.901 73.2999 384.501 73.5999 383.201 73.9999C381.901 73.6999 380.601 73.2999 379.301 72.9999C377.101 69.1999 377.001 64.7999 376.601 60.4999C375.901 52.3999 374.901 44.2999 374.201 36.2999ZM708.401 44.4999C710.201 42.1999 712.501 39.4999 715.801 40.1999C718.401 40.0999 719.601 42.6999 720.701 44.6999V47.2999C716.901 53.3999 712.201 58.6999 708.001 64.4999C692.001 85.2999 676.001 106.1 660.001 127C658.301 129.9 654.601 130.4 651.601 129.4C648.201 127.5 648.101 122.7 650.501 120C669.801 94.7999 689.201 69.6999 708.401 44.4999ZM325.301 60.2999C323.901 56.7999 326.801 53.0999 330.201 52.5999C332.001 52.8999 333.601 53.4999 335.301 54.0999C338.101 62.0999 340.601 70.1999 342.701 78.4999C343.701 81.9999 340.301 84.0999 337.701 85.4999C335.901 84.8999 334.201 84.1999 332.401 83.5999C329.701 75.7999 327.501 67.9999 325.301 60.2999ZM284.001 81.4999C288.501 79.8999 291.301 84.4999 293.301 87.6999C295.101 90.9999 298.501 94.2999 297.301 98.2999C296.101 102.5 289.701 103.4 287.301 99.8999C284.901 96.6999 282.701 93.1999 280.701 89.6999C279.001 86.6999 280.601 82.3999 284.001 81.4999ZM245.601 118.7C249.901 117 255.001 120.7 253.901 125.4C252.901 130.4 245.501 131.5 242.801 127.4C240.701 124.4 242.301 119.9 245.601 118.7Z" fill="#F26A25"/>
  <path d="M0 158.2C13.6 158.2 27.2 158.2 40.8 158.2C48.2 158.3 56.4 158.8 62.5 163.7C69.3 170 69.4 181.3 65 188.9C61.7 194.8 54.9 196.9 48.7 198C55.3 207.2 62.6 216 68.9 225.4C64 225.5 59 225.5 54.1 225.5C48.9 218.5 43.7 211.6 38.6 204.5C37.1 202.5 35.7 200.3 33.6 198.9C26.6 197.6 19.4 198.5 12.4 198.6C12.3 207.6 12.4 216.6 12.3 225.5C8.2 225.5 4.1 225.5 0 225.5V158.2M12.5 168.5C11.9 175.2 12.4 181.9 12.3 188.6C23 188.6 33.7 189 44.3 188.3C48.1 188.1 52.5 187 54.3 183.3C56.5 178.7 55.6 171.6 50.3 169.7C43.4 167 35.9 168.2 28.7 168C23.4 168.3 17.8 167.4 12.5 168.5ZM86.1 158.3C103.4 158 120.8 158.3 138.1 158.1C140.3 158.2 142.9 157.9 144.7 159.5C147.9 162.1 146.1 168.5 141.7 168.2C127.3 168.5 112.9 168.2 98.5 168.3C98.2 174.1 98.2 179.9 98.3 185.7C109.9 185.7 121.5 185.7 133.2 185.7C134.9 188 136.8 191.2 134.6 193.9C133.3 196 130.6 195.7 128.4 195.8C118.3 195.8 108.3 195.7 98.2 195.8C98.1 202.2 98.1 208.6 98.3 214.9C112.3 214.9 126.3 214.8 140.3 214.9C143.4 214.7 147.5 216.5 147.2 220.2C147.6 223.9 143.6 226 140.4 225.6C122.3 225.6 104.1 225.6 86 225.6C86.1 203.1 86.2 180.7 86.1 158.3ZM266.3 158.2C271.2 158.2 276 158.2 280.9 158.1C292 180.4 303 202.9 313.5 225.4C309.1 225.4 304.8 225.4 300.4 225.3C298.3 220 295.9 214.9 293.5 209.8C280.2 209.8 266.9 209.8 253.6 209.8C251.1 215 248.7 220.3 246.3 225.5C241.9 225.5 237.6 225.5 233.2 225.5C244.2 203 255.3 180.6 266.3 158.2ZM258.8 199.4C268.7 199.4 278.5 199.5 288.4 199.3C284 188.6 278.8 178.1 273.7 167.7C268.4 178.1 263.6 188.8 258.8 199.4ZM313 167.8C308.8 165.2 310.9 158 315.9 158.2C335.9 158 356 158.3 376.1 158.1C378.3 158.2 380.8 157.9 382.6 159.4C385.8 161.9 384.1 168.3 379.7 168.1C371.1 168.5 362.4 167.7 353.7 168.6C353.7 187.6 353.7 206.5 353.7 225.5C349.6 225.5 345.5 225.5 341.4 225.4C341.4 206.4 341.5 187.4 341.4 168.4C331.9 168 322.4 168.9 313 167.8ZM490.3 158.2C503.8 158.2 517.4 158.2 530.9 158.2C536.8 158.2 542.8 158.7 548.3 160.9C553 162.8 556.6 167.1 557.5 172.1C558.8 178.9 558 186.7 552.9 191.8C549.3 195.7 543.9 196.8 539 197.9C545.4 207.3 552.7 216 559.3 225.3C554.2 225.4 549.2 225.4 544.1 225.3C538.5 217.5 532.7 209.9 527.1 202.1C525.8 200.7 524.7 198.4 522.5 198.3C515.8 197.8 509.1 198.1 502.4 198.5C502.4 207.4 502.4 216.4 502.4 225.3C498.4 225.3 494.4 225.4 490.4 225.4C490.1 203.1 490.4 180.6 490.3 158.2ZM502.6 188.6C514.4 188.5 526.3 189.3 538.1 187.8C545.7 187 548.2 176.7 543.5 171.5C540.1 168.5 535.3 168.1 531 168.1C521.6 168.1 512.2 168.2 502.7 168.1C502.5 174.9 502.5 181.7 502.6 188.6ZM576.4 158.2C592 158.3 607.7 158.3 623.3 158.2C626.6 158.3 630 157.9 633.3 158.6C635.6 159.3 636.2 161.9 637.4 163.7C635.9 165.7 634.8 168.7 631.8 168.2C617.5 168.5 603.2 168.1 588.9 168.6C588.8 174.3 588.8 180.1 589.1 185.8C599.7 185.6 610.3 185.8 621 185.7C622.7 188 624.6 191.2 622.4 193.9C621.1 196 618.4 195.7 616.3 195.8C607.2 195.8 598.2 195.8 589.1 195.7C588.8 202.1 588.8 208.6 589 215C603.3 214.8 617.6 214.8 631.9 215C635.4 214.7 638.7 217.7 637.7 221.4C637.5 224.9 633.5 225.8 630.6 225.6C612.5 225.5 594.4 225.6 576.3 225.5C576.4 203 576.1 180.6 576.4 158.2ZM161.8 163.6C161.9 159.5 166.9 156.8 170.5 158.7C172.3 159.9 173.3 161.9 174.3 163.8C182 180.2 189.6 196.7 197.6 213C205.8 196.1 213.9 179 222.1 162.1C223.5 158.1 229.1 156.7 232.1 160C234.7 162.4 233.5 166 232.2 168.7C223 187.7 213.6 206.5 204.4 225.5C200 225.5 195.5 225.5 191.1 225.5C182.8 208.4 174.5 191.3 166.3 174.2C164.5 170.7 162.3 167.4 161.8 163.6ZM400.4 159.5C404.3 155.9 411.1 159.5 410.4 164.7C410.7 176.4 409.9 188.1 410.7 199.7C411 206.4 415.5 212.8 421.9 215C430.6 217.7 440.4 217.8 448.7 213.7C454.3 210.9 457 204.6 457.2 198.6C457.5 187.8 457.1 176.9 457.3 166.1C457.4 163.5 457.6 160.2 460.3 159C463.9 156.6 469.4 159.2 469.6 163.6C470.2 170.4 469.7 177.2 469.8 184C469.7 193.1 470.7 202.7 466.8 211.3C462.7 220.3 452.8 225.8 443.1 225.9C436.7 226.1 430.2 226.1 423.8 225.9C413.8 225.6 403.8 219.3 400.2 209.8C398.2 204.7 397.9 199.1 398 193.7C398.1 184.9 398 176.1 398 167.3C398.2 164.6 398 161.3 400.4 159.5Z" fill="#474C55"/>
  </g>
  <defs>
  <clipPath id="clip0_4603_7730">
  <rect width="720.7" height="226.1" fill="white"/>
  </clipPath>
  </defs>
</svg>
