<svg
  width="100"
  height="28"
  viewBox="0 0 84 26"
  class="text-secondary inline"
  fill="fill-current"
  xmlns="http://www.w3.org/2000/svg"
>
  <g clip-path="url(#clip0_103_47132)">
    <path
      d="M82.2642 5.05893C82.4734 4.79725 82.7404 4.49028 83.1214 4.56996C83.4214 4.55864 83.5628 4.85387 83.6905 5.08158V5.37512C83.2491 6.0679 82.7048 6.67009 82.2158 7.32932C80.3564 9.69518 78.4986 12.0622 76.6422 14.4303C76.423 14.7342 76.017 14.8476 75.6668 14.7028C75.4901 14.5885 75.374 14.4038 75.3492 14.198C75.3244 13.9922 75.3936 13.7861 75.5382 13.6347C77.7792 10.7714 80.0318 7.91977 82.2612 5.05641"
      class="fill-current"
    />
    <path
      d="M76.3258 2.24135C76.5697 2.23003 76.883 2.23003 77.0115 2.49296C77.2554 2.8339 77.0115 3.24277 76.8255 3.54974C75.1541 6.24241 73.5045 8.94683 71.8443 11.6395C71.6583 11.9582 71.252 12.2643 70.8804 12.0371C70.6921 11.9458 70.5556 11.7768 70.5083 11.5765C70.4611 11.3761 70.5081 11.1657 70.6365 11.0029C72.332 8.2419 74.039 5.49261 75.7224 2.73158C75.8617 2.50429 76.0125 2.22038 76.3263 2.24303"
      class="fill-current"
    />
    <path
      d="M69.3835 0.797644C69.7203 0.695322 70.1849 0.684418 70.3589 1.03668C70.5565 1.32016 70.382 1.62713 70.2659 1.89971C69.0466 4.45777 67.8625 7.01248 66.6432 9.56887C66.5363 9.82038 66.2883 9.98698 66.01 9.99432C65.7318 10.0017 65.475 9.84835 65.3545 9.60284C65.2978 9.34234 65.3438 9.07053 65.483 8.84171C66.6787 6.31971 67.8672 3.79687 69.0479 1.27445C69.1328 1.09846 69.2466 0.93726 69.3847 0.797225"
      class="fill-current"
    />
    <path
      d="M62.4384 0.639208C62.5448 0.236821 62.9322 -0.0318824 63.3555 0.00304678C63.5762 0.28695 63.9362 0.594337 63.7502 0.980144C63.0186 3.26395 62.2408 5.53643 61.5092 7.83156C61.4559 8.12654 61.2898 8.39059 61.0446 8.57005C60.7262 8.69086 60.3645 8.58773 60.1622 8.31843C59.9762 8.05718 60.1159 7.72756 60.1854 7.45498C60.9401 5.1825 61.6854 2.91001 62.4379 0.63795"
      class="fill-current"
    />
    <path
      d="M56.0383 0.535715C56.3053 0.479102 56.6074 0.308425 56.8629 0.490425C57.1871 0.67232 57.3256 1.05954 57.1882 1.39959C56.7934 3.39991 56.445 5.39897 56.0387 7.39888C55.9802 7.62818 55.8013 7.80968 55.5693 7.87535C55.3373 7.94101 55.087 7.88091 54.9124 7.71759C54.6223 7.46597 54.7264 7.05836 54.7839 6.74049C55.0624 5.33146 55.3294 3.92242 55.5982 2.50207C55.6816 1.83474 55.8294 1.17664 56.0396 0.536554"
      class="fill-current"
    />
    <path
      d="M49.8398 1.58129C50.1038 1.51024 50.3855 1.53867 50.6292 1.66096C50.9292 2.00148 50.8152 2.4787 50.8152 2.88758C50.6991 4.35532 50.6866 5.81887 50.5714 7.28451C50.5366 7.932 49.4451 7.97771 49.2706 7.38683C49.228 6.98231 49.2319 6.57438 49.2822 6.17071C49.3401 4.89796 49.4108 3.62564 49.4682 2.35458C49.4798 2.082 49.5261 1.68361 49.8398 1.58212"
      class="fill-current"
    />
    <path
      d="M43.457 4.11816C43.4172 3.87893 43.5151 3.63769 43.7118 3.49037C43.9085 3.34306 44.1721 3.31358 44.3977 3.41364C44.7577 3.52729 44.8156 3.93616 44.8391 4.25235C44.9321 5.35442 45.083 6.44558 45.1644 7.54722C45.1863 7.8082 45.1166 8.06867 44.9668 8.28571C44.816 8.31968 44.6531 8.35406 44.5023 8.39935C44.3514 8.3658 44.2023 8.31967 44.0493 8.28613C43.84 7.8406 43.733 7.35567 43.7356 6.86535C43.6541 5.95619 43.538 5.03613 43.457 4.11564"
      class="fill-current"
    />
    <path
      d="M37.7774 6.85475C37.7163 6.66397 37.7444 6.45654 37.8541 6.28789C37.9639 6.11925 38.1441 6.00657 38.3466 5.97998C38.5488 6.01939 38.747 6.07637 38.9388 6.15024C39.2675 7.06112 39.5535 7.9862 39.796 8.92259C39.9121 9.32014 39.5174 9.55875 39.2153 9.71937C39.0061 9.65101 38.809 9.57175 38.5998 9.5034C38.2861 8.6173 38.0307 7.73079 37.7753 6.85601"
      class="fill-current"
    />
    <path
      d="M32.9805 9.26442C33.503 9.08242 33.8282 9.60535 34.0605 9.96893C34.2697 10.3438 34.6644 10.7187 34.5251 11.1733C34.4386 11.395 34.2378 11.5547 33.9983 11.5923C33.7588 11.6298 33.5171 11.5395 33.3641 11.3553C33.0846 10.9847 32.8287 10.5976 32.5978 10.1962C32.5041 10.0253 32.4926 9.82255 32.5666 9.64262C32.6406 9.46269 32.7924 9.32415 32.981 9.26442"
      class="fill-current"
    />
    <path
      d="M28.521 13.4779C28.7594 13.3834 29.0315 13.4229 29.2317 13.581C29.432 13.7391 29.5288 13.991 29.4848 14.2391C29.406 14.4987 29.1844 14.6928 28.912 14.7409C28.6395 14.7889 28.3626 14.6827 28.1961 14.4663C28.0904 14.296 28.0656 14.0891 28.128 13.8994C28.1905 13.7098 28.334 13.5559 28.5214 13.4779"
      class="fill-current"
    />
    <path
      d="M4.73743 17.9775C5.59457 17.9889 6.549 18.0459 7.257 18.6024C8.04643 19.3182 8.058 20.6027 7.54714 21.4657C7.164 22.1367 6.37457 22.3749 5.65457 22.4999C6.42086 23.5453 7.26857 24.5451 8.00014 25.6132C7.431 25.6245 6.85071 25.6245 6.28157 25.6245C5.67771 24.8277 5.07386 24.0452 4.48157 23.2383C4.32607 22.9957 4.12973 22.7807 3.90086 22.6022C3.08343 22.5115 2.25883 22.5003 1.43914 22.5686C1.42757 23.5906 1.43914 24.6134 1.42757 25.6245H0V17.9775H4.73743ZM1.45157 19.1475V19.148C1.38171 19.9091 1.44 20.6706 1.42843 21.4318C2.67129 21.4318 3.91414 21.4771 5.14414 21.3982C5.60755 21.427 6.05099 21.2098 6.30514 20.8296C6.56229 20.3071 6.456 19.5002 5.84057 19.2842C5.03957 18.9773 4.16914 19.114 3.33257 19.0913C2.70501 19.0647 2.0763 19.0834 1.45157 19.1475Z"
      class="fill-current"
    />
    <path
      d="M9.99723 17.9887C12.0059 17.9551 14.0258 17.9887 16.0354 17.966C16.3019 17.9314 16.5725 17.9877 16.8017 18.1254C17.1732 18.4189 16.9641 19.1473 16.4532 19.1134C14.7818 19.1473 13.1104 19.1134 11.4389 19.1247C11.4042 19.7835 11.4042 20.4427 11.4158 21.1015H15.4684C15.6659 21.3628 15.8862 21.7264 15.6308 22.0333C15.4799 22.2724 15.1662 22.238 14.9108 22.2493C13.7382 22.2493 12.5768 22.238 11.4042 22.2493C11.3927 22.9765 11.3927 23.7036 11.4158 24.4195C13.0414 24.4195 14.6669 24.4081 16.2929 24.4195C16.6529 24.3968 17.1291 24.6015 17.0939 25.0217C17.1402 25.441 16.6761 25.6805 16.3045 25.6352H9.98523C9.9968 23.0771 10.0084 20.5337 9.9968 17.9887"
      class="fill-current"
    />
    <path
      d="M32.6148 17.9663C33.9039 20.4992 35.1832 23.0573 36.4004 25.6153C35.8895 25.6153 35.3902 25.6153 34.8794 25.604C34.6355 25.0018 34.3569 24.4223 34.0784 23.8427H29.4451C29.1549 24.434 28.8759 25.0358 28.5974 25.6267H27.0759C28.3531 23.0686 29.6422 20.5252 30.9194 17.9801V17.9776C31.4885 17.9776 32.0456 17.9776 32.6148 17.9663ZM31.7786 19.0596C31.2658 20.0444 30.7934 21.0449 30.3275 22.0548L30.0485 22.6614C31.1979 22.6614 32.3362 22.6727 33.4856 22.6501C32.9748 21.434 32.3714 20.2413 31.7786 19.0596Z"
      class="fill-current"
    />
    <path
      d="M36.3406 19.0683C36.1257 18.9188 36.0324 18.6517 36.1087 18.4048C36.185 18.1578 36.4139 17.9861 36.6774 17.978C38.9999 17.9554 41.3339 17.9893 43.6679 17.9667C43.9292 17.9337 44.1943 17.9856 44.4226 18.1143C44.596 18.2649 44.6609 18.5021 44.5876 18.7173C44.5142 18.9325 44.3168 19.0841 44.0857 19.1027C43.0872 19.148 42.077 19.0574 41.0669 19.1593V25.6245C40.5907 25.6245 40.1146 25.6245 39.6384 25.6132C39.6384 23.4544 39.65 21.2939 39.6384 19.1367C38.5353 19.0914 37.4322 19.1933 36.3406 19.0683Z"
      class="fill-current"
    />
    <path
      d="M63.6763 18.285C64.2296 18.505 64.6316 18.9839 64.7448 19.5577C64.9518 20.3444 64.7523 21.1805 64.2108 21.7962C63.7573 22.1825 63.1943 22.4243 62.5968 22.4894C63.3399 23.5575 64.1876 24.5443 64.9539 25.6027C64.3616 25.614 63.7813 25.614 63.189 25.6027C62.5389 24.7166 61.8652 23.8532 61.215 22.9666C61.0642 22.8077 60.9365 22.5473 60.681 22.5347C59.9034 22.4911 59.1236 22.4987 58.347 22.5574V25.6023C57.8825 25.6023 57.4179 25.6136 56.9538 25.6136C56.9075 23.0799 56.9422 20.5235 56.9422 17.9784L56.9418 17.978H61.656C62.3433 17.9539 63.0289 18.0581 63.6763 18.285ZM61.656 19.104C60.5645 19.104 59.4729 19.1149 58.3698 19.104C58.3485 19.88 58.3447 20.6564 58.3582 21.4326H58.3586C59.7332 21.4818 61.1096 21.4514 62.4806 21.3416C63.363 21.2506 63.6532 20.0806 63.1076 19.4898C62.6873 19.1938 62.1716 19.0567 61.656 19.104Z"
      class="fill-current"
    />
    <path
      d="M66.9398 17.9669C68.7514 17.9782 70.5741 17.9782 72.3857 17.9669C72.7733 17.9479 73.1619 17.9631 73.5467 18.0122C73.8137 18.0919 73.8836 18.3871 74.0229 18.5917C73.8489 18.819 73.7229 19.16 73.3727 19.1033C71.7124 19.1369 70.0517 19.0916 68.3914 19.1482C68.3798 19.7957 68.3798 20.4549 68.4146 21.1024C69.6454 21.0798 70.8763 21.1024 72.1187 21.0911C72.3163 21.3523 72.5366 21.7159 72.2811 22.0229C72.1303 22.2619 71.8166 22.2275 71.5727 22.2389C70.5159 22.2389 69.4727 22.2389 68.4141 22.2275C68.3813 22.9582 68.3775 23.6898 68.4026 24.4208C70.0633 24.3977 71.7236 24.3977 73.3839 24.4208C73.5821 24.3957 73.7802 24.4672 73.9145 24.6121C74.0487 24.757 74.102 24.9569 74.0571 25.1475C74.034 25.545 73.5694 25.6474 73.2326 25.6247C71.1326 25.6134 69.0291 25.6247 66.9274 25.6134C66.9274 23.0683 66.8927 20.5233 66.939 17.9669"
      class="fill-current"
    />
    <path
      d="M18.7823 18.5917C18.8044 18.3666 18.9376 18.1663 19.1389 18.0554C19.3402 17.9444 19.5843 17.9367 19.7925 18.0348C19.9867 18.189 20.1385 18.3882 20.2339 18.6144C21.1279 20.4775 22.0103 22.3525 22.9395 24.2044C23.8918 22.2841 24.8321 20.3413 25.7843 18.4215C25.869 18.2013 26.0626 18.0387 26.2978 17.9902C26.533 17.9418 26.7773 18.0143 26.9453 18.1824C27.2453 18.455 27.1078 18.8643 26.9569 19.1708C25.8885 21.3297 24.7969 23.4659 23.7289 25.6247H22.1861C21.2231 23.6832 20.2632 21.7402 19.3065 19.7957C19.0633 19.4262 18.8867 19.0187 18.7841 18.5909"
      class="fill-current"
    />
    <path
      d="M46.4933 18.1257C46.7134 17.9488 47.0202 17.9174 47.273 18.0459C47.5257 18.1745 47.6758 18.4382 47.6543 18.7162C47.689 20.0455 47.5964 21.3749 47.689 22.6929C47.7285 23.4746 48.24 24.1582 48.9897 24.4311C50.0085 24.7702 51.121 24.7174 52.1016 24.2835C52.7231 23.9285 53.1001 23.2725 53.0873 22.5684C53.122 21.3409 53.0757 20.1026 53.0988 18.8751C53.1104 18.5816 53.1336 18.2041 53.4473 18.0683C53.656 17.9442 53.9151 17.9332 54.134 18.0391C54.3529 18.145 54.5013 18.3532 54.5273 18.5908C54.5971 19.3632 54.5388 20.1361 54.5504 20.9086C54.5388 21.9427 54.655 23.0334 54.202 24.0118C53.6786 25.029 52.614 25.6708 51.4501 25.6708C50.7033 25.6934 49.9559 25.6934 49.2091 25.6708C48.0081 25.6397 46.9366 24.9244 46.4688 23.8415C46.2619 23.2541 46.1746 22.6326 46.2117 22.0123C46.2233 21.0126 46.2117 20.0124 46.2117 19.0127C46.2348 18.7057 46.2117 18.3308 46.4903 18.1266"
      class="fill-current"
    />
  </g>
  <defs>
    <clipPath id="clip0_103_47132">
      <rect width="84" height="26" class="fill-current" />
    </clipPath>
  </defs>
</svg>
